# xmcd CD database file
#
# Track frame offsets:
#	150
#	21262
#	30150
#	46562
#	60857
#	74390
#	89622
#	110677
#	147375
#	180325
#	207235
#	220727
#	243455
#
# Disc length: 3492 seconds
#
# Revision: 1
# Processed by: cddbd v1.5PL3 Copyright (c) Steve Scherf et al.
# Submitted via: CDex 1.50
#
DISCID=ac0da20d
DTITLE=バンバンバザール - HIGHLIGHT 1 (Delux Side)
DYEAR=2000
DGENRE=Blues
TTITLE0=こんにちは
TTITLE1=歌は廻る
TTITLE2=プリーズ・ドント・トーク・アバウト・ミー
TTITLE3=おまえの足はでかすぎる
TTITLE4=ニューオリンズにて
TTITLE5=ラヴァー・カム・バック・トゥ・ミー
TTITLE6=The Song Is Ended
TTITLE7=遠い君の家
TTITLE8=4時間座っていたけれど
TTITLE9=営業五原則
TTITLE10=Friday Night エビフライ
TTITLE11=風呂屋
TTITLE12=明るい表通りで
EXTD=YEAR: 2000
EXTT0=
EXTT1=
EXTT2=
EXTT3=
EXTT4=
EXTT5=
EXTT6=
EXTT7=
EXTT8=
EXTT9=
EXTT10=
EXTT11=
EXTT12=
PLAYORDER=
